<svg xmlns="http://www.w3.org/2000/svg" viewBox="0 0 24 30" x="0px" y="0px">
  <style>
    .favicon {
      fill: #333;
    }

    @media (prefers-color-scheme: dark) {
      .favicon {
        fill: yellow;
      }
    }
  </style>
  <path class="favicon"
    d="M23.94,9.19a1.27,1.27,0,0,0-1.1-.88l-6.93-.63L13.17,1.27a1.28,1.28,0,0,0-2.35,0L8.09,7.69l-6.93.63a1.28,1.28,0,0,0-.72,2.23l5.24,4.59-1.54,6.8A1.28,1.28,0,0,0,6,23.32l6-3.57,6,3.57a1.28,1.28,0,0,0,1.9-1.38l-1.54-6.8,5.24-4.59A1.28,1.28,0,0,0,23.94,9.19ZM12.12,19.68h0Z" />
</svg>