<svg xmlns="http://www.w3.org/2000/svg" viewBox="0 0 458.2 444.33">
  <style>
    .icon-path {
      fill: "#333";
    }

    @media (prefers-color-scheme: dark) {
      .icon-path {
        fill: yellow
      }
    }
  </style>
  <path
    d="M475.43,116.8,361.92,248.37a4.22,4.22,0,0,0-1.15,3.26L381.41,383.2c.4,2.56-2.77,5.56-5.37,5.07L242.85,363.14a4.41,4.41,0,0,0-3.36,1L101.32,470.59c-2.7,2.08-5.71.93-5.1-1.94l31.19-147.1a2.36,2.36,0,0,0-.93-2.63l-106-65.79c-2.07-1.28-.76-5,2.21-6.27l152.47-65.78a5.69,5.69,0,0,0,2.78-2.63l72.65-147.1c1.41-2.87,5.23-4,6.46-1.94l63.05,106.44a2.44,2.44,0,0,0,2.64,1l150.93-25.13C476.59,111.24,477.64,114.24,475.43,116.8Z"
    transform="translate(-18.93 -27.84)" class="icon-path" />
</svg>