<svg xmlns="http://www.w3.org/2000/svg" viewBox="0 0 921 921"><circle cx="460.5" cy="460.5" r="460.5" style="fill:#03274a"/><path d="M503.45,285l58.06,24.07A335.4,335.4,0,0,0,545.89,360l-2.2,10,83.23,83.28,10-2.15a335.8,335.8,0,0,0,50.9-15.61l24.07,58.05a3.75,3.75,0,0,0,4.9,2.05,3.69,3.69,0,0,0,1.26-.85l36.39-36.38A60.08,60.08,0,0,0,772,412.88l-1.3-23.37c67.37-49.75,135.53-137,154.1-289.23a25,25,0,0,0-28.08-28.23C744.49,90.77,657.2,159,607.45,226.15L584.13,225a60,60,0,0,0-45.49,17.27L502.25,278.6a3.75,3.75,0,0,0,1.2,6.41Zm233.43-88.69a45,45,0,1,1-.11.11ZM492.59,459.93a59.08,59.08,0,0,0-30-2.4,5.49,5.49,0,0,1-6.1-7.66c10.66-22.92,38.93-69,90.13-31.78a2.55,2.55,0,0,1,.2,3.6,1.89,1.89,0,0,1-.2.2,55.62,55.62,0,0,0-21.17,45.55,4.06,4.06,0,0,0,3.91,3.9,55.53,55.53,0,0,0,45.54-20.72,2.55,2.55,0,0,1,3.59-.36,2.53,2.53,0,0,1,.37.36c7.1,8.46,26.67,36.09,5,62.76a56.29,56.29,0,0,1-37.74,20c-21,2.25-59.86,9.11-75.72,27.23a5.46,5.46,0,0,1-9.41-2C455.35,539.51,446.65,496.77,492.59,459.93Z" transform="translate(-40 -40)" style="fill:#ff630a"/></svg>